<?xml version="1.0" encoding="iso-8859-1"?>
<!-- Uploaded to: SVG Repo, www.svgrepo.com, Generator: SVG Repo Mixer Tools -->
<svg version="1.1" id="Layer_1" xmlns="http://www.w3.org/2000/svg" xmlns:xlink="http://www.w3.org/1999/xlink" 
	 viewBox="0 0 512.001 512.001" xml:space="preserve">
<rect x="221.871" y="81.104" style="fill:#F95428;" width="68.26" height="65.353"/>
<path style="fill:#2BA5F7;" d="M163.233,335.169v36.026H98.765v-36.026c0-17.798,14.436-32.234,32.234-32.234
	c8.912,0,16.964,3.615,22.791,9.443C159.63,318.205,163.233,326.27,163.233,335.169z"/>
<path style="fill:#F7B239;" d="M130.999,238.48c17.811,0,32.234,14.423,32.234,32.234c0,17.798-14.423,32.221-32.234,32.221
	c-17.798,0-32.234-14.423-32.234-32.221C98.765,252.903,113.201,238.48,130.999,238.48z"/>
<path style="fill:#F95428;" d="M200.523,202.454v168.741h-37.29v-36.026c0-8.899-3.603-16.964-9.443-22.791
	c-5.827-5.827-13.88-9.443-22.791-9.443c17.811,0,32.234-14.423,32.234-32.221c0-17.811-14.423-32.234-32.234-32.234
	c-17.798,0-32.234,14.423-32.234,32.234c0,17.798,14.436,32.221,32.234,32.221c-17.798,0-32.234,14.436-32.234,32.234v36.026H65.911
	V202.454L200.523,202.454L200.523,202.454z"/>
<path style="fill:#F7B239;" d="M502.523,185.452v206.449c0,21.54-17.47,38.997-39.009,38.997H48.48
	c-21.54,0-38.997-17.457-38.997-38.997V185.452c0-21.54,17.457-38.997,38.997-38.997h173.393h68.26h173.381
	C485.054,146.455,502.523,163.912,502.523,185.452z M200.523,371.195V202.454H65.911v168.742h32.853h64.468H200.523z"/>
<path style="fill:#E09B2D;" d="M39.974,391.901V185.452c0-21.54,17.457-38.997,38.997-38.997h-30.49
	c-21.54,0-38.997,17.457-38.997,38.997v206.449c0,21.54,17.457,38.997,38.997,38.997h30.49
	C57.429,430.898,39.974,413.441,39.974,391.901z"/>
<g>
	<path style="fill:#FFFFFF;" d="M470.921,370.74c-5.237,0-9.481-4.245-9.481-9.481V187.309c-4.24-0.946-7.406-4.729-7.406-9.253
		c0-5.236,4.243-9.481,9.481-9.481c9.311,0,16.887,7.571,16.887,16.875V361.26C480.402,366.495,476.158,370.74,470.921,370.74z"/>
	<path style="fill:#FFFFFF;" d="M176.998,253.181c-5.237,0-9.481-4.245-9.481-9.481v-16.433c0-5.236,4.243-9.481,9.481-9.481
		c5.237,0,9.481,4.245,9.481,9.481v16.433C186.479,248.936,182.235,253.181,176.998,253.181z"/>
	<path style="fill:#FFFFFF;" d="M264.852,129.934c-5.237,0-9.481-4.245-9.481-9.481V104.02c0-5.236,4.244-9.481,9.481-9.481
		s9.481,4.245,9.481,9.481v16.433C274.332,125.689,270.089,129.934,264.852,129.934z"/>
	<circle style="fill:#FFFFFF;" cx="470.919" cy="391.902" r="9.481"/>
</g>
<g>
	<path style="fill:#333333;" d="M463.52,136.97H299.609V81.105c0-5.236-4.243-9.481-9.481-9.481h-68.256
		c-5.237,0-9.481,4.245-9.481,9.481v55.865H48.481C21.748,136.97,0,158.719,0,185.451v206.445c0,26.731,21.748,48.481,48.481,48.481
		H463.52c26.731,0,48.481-21.748,48.481-48.481V185.451C512,158.719,490.252,136.97,463.52,136.97z M231.352,90.586h49.295v46.384
		h-49.295V90.586z M493.039,391.896c0,16.276-13.242,29.52-29.52,29.52H48.481c-16.278,0-29.52-13.242-29.52-29.52V185.451
		c0-16.276,13.242-29.52,29.52-29.52H463.52c16.277,0,29.52,13.242,29.52,29.52v206.445H493.039z"/>
	<path style="fill:#333333;" d="M200.524,192.971H65.908c-5.237,0-9.481,4.245-9.481,9.481v168.745c0,5.236,4.243,9.481,9.481,9.481
		h134.616c5.237,0,9.481-4.245,9.481-9.481V202.451C210.005,197.215,205.76,192.971,200.524,192.971z M108.253,361.716v-26.544
		c0-12.545,10.206-22.752,22.751-22.752c12.546,0,22.752,10.206,22.752,22.752v26.544H108.253z M131.004,293.458
		c-12.546,0-22.752-10.206-22.752-22.752s10.206-22.752,22.752-22.752s22.752,10.206,22.752,22.752S143.55,293.458,131.004,293.458z
		 M191.044,361.716h-18.327v-26.544c0-12.978-5.961-24.589-15.286-32.245c9.318-7.656,15.286-19.247,15.286-32.219
		c0-23-18.713-41.713-41.713-41.713s-41.713,18.712-41.713,41.713c0,12.972,5.966,24.565,15.284,32.221
		c-9.323,7.657-15.283,19.266-15.283,32.243v26.544H75.388V211.932h115.655V361.716z"/>
	<path style="fill:#333333;" d="M441.951,227.098H288.374c-5.237,0-9.481,4.245-9.481,9.481c0,5.236,4.243,9.481,9.481,9.481
		h153.578c5.237,0,9.481-4.245,9.481-9.481C451.432,231.343,447.188,227.098,441.951,227.098z"/>
	<path style="fill:#333333;" d="M441.951,260.595h-94.802c-5.237,0-9.481,4.245-9.481,9.481c0,5.236,4.243,9.481,9.481,9.481h94.802
		c5.237,0,9.481-4.245,9.481-9.481C451.432,264.84,447.188,260.595,441.951,260.595z"/>
	<path style="fill:#333333;" d="M441.951,294.09H288.374c-5.237,0-9.481,4.245-9.481,9.481s4.243,9.481,9.481,9.481h153.578
		c5.237,0,9.481-4.245,9.481-9.481S447.188,294.09,441.951,294.09z"/>
	<path style="fill:#333333;" d="M441.951,327.587h-94.802c-5.237,0-9.481,4.245-9.481,9.481c0,5.236,4.243,9.481,9.481,9.481h94.802
		c5.237,0,9.481-4.245,9.481-9.481C451.432,331.832,447.188,327.587,441.951,327.587z"/>
</g>
</svg>